<?xml version="1.0" encoding="UTF-8"?>
<svg id="Layer_1" data-name="Layer 1" xmlns="http://www.w3.org/2000/svg" viewBox="0 0 163.12 60">
  <defs>
    <style>
      .cls-1 {
        fill-rule: evenodd;
      }

      .cls-1, .cls-2 {
        fill: #003c75;
      }
    </style>
  </defs>
  <path class="cls-1" d="M0,0h60v60H0V0ZM32.42,13c5.74,0,10.58,3.29,10.58,10.27,0,5.45-2.78,8.68-7.24,9.84l6.73,13.89h-5.69l-6.55-13.45h-7.43v13.45h-4.84v-18.42h14.42c3.29,0,5.72-1.62,5.72-5.31s-2.53-5.31-5.87-5.31h-14.27v-4.96h14.42Z"/>
  <path class="cls-2" d="M80.68,26h2.3l-2.39-4.19-1.06-1.28c2.02-.31,3.28-1.64,3.28-3.55,0-2.16-1.64-3.58-4.19-3.58h-4.99v12.6h1.89v-5.4h2.45l2.72,5.4ZM75.51,15.09h3.13c1.57,0,2.18.54,2.18,1.91s-.61,1.94-2.18,1.94h-3.13v-3.85Z"/>
  <path class="cls-2" d="M92.3,21.5c0-2.65-1.67-4.32-4.09-4.32s-4.25,1.82-4.25,4.52,1.71,4.48,4.34,4.48c1.76,0,3.19-.72,3.8-2.23l-1.66-.67c-.4,1.03-.92,1.35-2.12,1.35-1.62,0-2.34-.7-2.48-2.38h6.44c.02-.34.02-.49.02-.76ZM88.24,18.69c1.49,0,2.16.61,2.23,2.21h-4.61c.18-1.51.94-2.21,2.38-2.21Z"/>
  <path class="cls-2" d="M100.08,17.36l-1.89,5.44-.65,2.03-.61-2.02-1.87-5.45h-2.03l3.76,9.74.04-.04-.11.36h-3.13v1.64h1.85c1.58,0,2.27-.52,2.79-1.84l3.89-9.86h-2.03Z"/>
  <path class="cls-2" d="M108.62,17.18c-1.69,0-2.61.88-3.02,2.27v-2.09h-1.84v8.64h1.84v-4.07c0-2,.94-3.08,2.39-3.08,1.17,0,1.89.67,1.89,1.96v5.18h1.84v-5.31c0-2.29-1.06-3.51-3.1-3.51Z"/>
  <path class="cls-2" d="M120.93,17.36v1.82c-.59-1.28-1.71-2-3.19-2-2.43,0-3.96,1.8-3.96,4.5s1.55,4.5,4.03,4.5c1.44,0,2.52-.72,3.11-1.96v1.78h1.84v-8.64h-1.84ZM118.32,24.51c-1.91,0-2.68-.81-2.68-2.83s.77-2.83,2.68-2.83,2.7.81,2.7,2.83-.79,2.83-2.7,2.83Z"/>
  <path class="cls-2" d="M133.26,21.5c0-2.65-1.68-4.32-4.09-4.32s-4.25,1.82-4.25,4.52,1.71,4.48,4.34,4.48c1.76,0,3.19-.72,3.8-2.23l-1.66-.67c-.4,1.03-.92,1.35-2.12,1.35-1.62,0-2.34-.7-2.48-2.38h6.44c.02-.34.02-.49.02-.76ZM129.19,18.69c1.49,0,2.16.61,2.23,2.21h-4.61c.18-1.51.94-2.21,2.38-2.21Z"/>
  <path class="cls-2" d="M139.9,17.2c-1.73,0-2.41,1.3-2.68,2.68v-2.52h-1.84v8.64h1.84v-3.74c0-2.03.9-3.35,2.54-3.35.65,0,.92.11,1.17.22v-1.78c-.27-.13-.65-.14-1.03-.14Z"/>
  <path class="cls-2" d="M145.54,26.18c2.23,0,3.62-1.06,3.62-2.75,0-1.39-.88-2.14-2.23-2.38l-1.96-.34c-.83-.13-1.06-.43-1.06-1.03,0-.72.49-1.06,1.53-1.06s1.58.25,1.75,1.62l1.8-.43c-.32-1.82-1.6-2.63-3.62-2.63s-3.31,1.01-3.31,2.61,1.04,2.29,2.43,2.52l1.57.29c1.03.18,1.28.43,1.28,1.08,0,.7-.52,1.03-1.66,1.03-1.21,0-1.85-.4-2.03-1.66l-1.82.52c.31,1.58,1.67,2.61,3.73,2.61Z"/>
  <path class="cls-2" d="M82.48,47h2.09l-4.82-12.6h-2.66l-4.84,12.6h2.07l1.22-3.29h5.72l1.22,3.29ZM76.18,42.01l1.48-3.96.76-2.18.74,2.18,1.48,3.96h-4.45Z"/>
  <path class="cls-2" d="M86.2,47h1.84v-12.6h-1.84v12.6Z"/>
  <path class="cls-2" d="M96.91,38.36v4.07c0,2-.94,3.08-2.39,3.08-1.17,0-1.89-.67-1.89-1.96v-5.18h-1.84v5.31c0,2.29,1.06,3.51,3.1,3.51,1.69,0,2.61-.88,3.02-2.27v2.09h1.84v-8.64h-1.84Z"/>
  <path class="cls-2" d="M112.53,38.18c-1.58,0-2.63.81-3.13,2.32-.32-1.51-1.33-2.32-2.99-2.32s-2.61.88-3.02,2.27v-2.09h-1.84v8.64h1.84v-4.07c0-2,.94-3.08,2.39-3.08,1.17,0,1.89.67,1.89,1.96v5.18h1.84v-3.62c0-2.3.77-3.53,2.41-3.53,1.17,0,1.87.68,1.87,2.03v5.11h1.84v-5.22c0-2.34-1.06-3.6-3.1-3.6Z"/>
  <path class="cls-2" d="M119.29,36.58c.83,0,1.28-.45,1.26-1.24-.02-.77-.47-1.19-1.26-1.19s-1.28.41-1.26,1.19c.02.79.47,1.24,1.26,1.24ZM118.35,47h1.84v-8.64h-1.84v8.64Z"/>
  <path class="cls-2" d="M127.87,38.18c-1.69,0-2.61.88-3.02,2.27v-2.09h-1.84v8.64h1.84v-4.07c0-2,.94-3.08,2.39-3.08,1.17,0,1.89.67,1.89,1.96v5.18h1.84v-5.31c0-2.29-1.06-3.51-3.1-3.51Z"/>
  <path class="cls-2" d="M134.63,36.58c.83,0,1.28-.45,1.26-1.24-.02-.77-.47-1.19-1.26-1.19s-1.28.41-1.26,1.19c.02.79.47,1.24,1.26,1.24ZM133.7,47h1.84v-8.64h-1.84v8.64Z"/>
  <path class="cls-2" d="M144.4,38.36v4.07c0,2-.94,3.08-2.39,3.08-1.17,0-1.89-.67-1.89-1.96v-5.18h-1.84v5.31c0,2.29,1.06,3.51,3.1,3.51,1.69,0,2.61-.88,3.02-2.27v2.09h1.84v-8.64h-1.84Z"/>
  <path class="cls-2" d="M160.02,38.18c-1.58,0-2.63.81-3.13,2.32-.32-1.51-1.33-2.32-2.99-2.32s-2.61.88-3.02,2.27v-2.09h-1.84v8.64h1.84v-4.07c0-2,.94-3.08,2.39-3.08,1.17,0,1.89.67,1.89,1.96v5.18h1.84v-3.62c0-2.3.77-3.53,2.41-3.53,1.17,0,1.87.68,1.87,2.03v5.11h1.84v-5.22c0-2.34-1.06-3.6-3.1-3.6Z"/>
</svg>