<svg xmlns="http://www.w3.org/2000/svg" xmlns:xlink="http://www.w3.org/1999/xlink" id="Layer_1" x="0px" y="0px" viewBox="0 0 176 40" style="enable-background:new 0 0 176 40;" xml:space="preserve"><style type="text/css">	.st0{fill-rule:evenodd;clip-rule:evenodd;}</style><g>	<polygon class="st0" points="0,0.64 7.62,0.64 7.62,17.96 7.7,17.96 14.08,0.64 21.82,0.64 14.72,18.53 22.75,39.39 14.72,39.39   7.7,19.65 7.62,19.65 7.62,39.39 0,39.39  "></polygon>	<polygon class="st0" points="29.59,0.64 37.21,0.64 37.21,32.18 45.19,32.18 45.19,39.39 29.59,39.39  "></polygon>	<polygon class="st0" points="52,0.64 67.32,0.64 67.32,7.85 59.62,7.85 59.62,16.27 66.4,16.27 66.4,23.44 59.62,23.44   59.62,32.18 67.44,32.18 67.44,39.39 52,39.39  "></polygon>	<rect x="74.42" y="0.64" class="st0" width="7.62" height="38.76"></rect>	<path class="st0" d="M97.26,32.51L97.26,32.51c2.76,0.13,4.83-1.28,6.22-4.23c1.07-2.23,1.61-4.9,1.61-8.02  c0-3.25-0.51-5.99-1.52-8.22c-1.39-3.01-3.49-4.51-6.3-4.51V32.51z M96.42,39.4h-6.78V0.64h5.78c2.33,0,4.01,0.11,5.06,0.32  c4.39,0.86,7.61,3.22,9.67,7.09c1.71,3.22,2.57,7.32,2.57,12.29C112.7,33.04,107.28,39.4,96.42,39.4z"></path>	<path class="st0" d="M139.19,0.88v7.05c-1.02-0.27-1.97-0.4-2.85-0.4c-3.16,0-5.6,1.26-7.34,3.79c-1.52,2.23-2.29,5-2.29,8.3  c0,3.28,0.76,6.14,2.29,8.58c1.79,2.85,4.23,4.27,7.3,4.27c0.75,0,1.71-0.19,2.89-0.57v7.25c-1.07,0.43-2.25,0.64-3.53,0.64  c-5.24,0-9.47-2.08-12.68-6.24c-2.94-3.84-4.41-8.48-4.41-13.9c0-5.13,1.48-9.59,4.45-13.38c3.21-4.08,7.3-6.12,12.28-6.12  C136.58,0.15,137.88,0.39,139.19,0.88"></path>	<path class="st0" d="M151.7,20.02L151.7,20.02c0,2.93,0.26,5.47,0.8,7.62c0.91,3.52,2.45,5.28,4.61,5.28  c2.19,0,3.73-1.76,4.61-5.28c0.56-2.15,0.84-4.69,0.84-7.62c0-8.59-1.82-12.89-5.46-12.89C153.5,7.12,151.7,11.42,151.7,20.02   M157.12,0.03c4.81,0,8.41,2.24,10.79,6.73c1.85,3.55,2.77,7.97,2.77,13.26c0,5.29-0.92,9.71-2.77,13.26  c-2.38,4.48-5.98,6.73-10.79,6.73c-4.79,0-8.37-2.24-10.75-6.73c-1.87-3.55-2.81-7.97-2.81-13.26c0-5.29,0.94-9.71,2.81-13.26  C148.74,2.27,152.33,0.03,157.12,0.03z"></path>	<path class="st0" d="M173.05,0c0.34,0,0.66,0.06,0.96,0.19c0.3,0.13,0.57,0.31,0.81,0.55c0.23,0.23,0.41,0.5,0.53,0.8  c0.12,0.3,0.19,0.61,0.19,0.94c0,0.34-0.06,0.66-0.19,0.96s-0.3,0.56-0.54,0.79c-0.24,0.24-0.52,0.42-0.82,0.55  c-0.3,0.13-0.62,0.19-0.94,0.19c-0.33,0-0.65-0.06-0.95-0.19c-0.3-0.13-0.57-0.31-0.81-0.55c-0.24-0.24-0.41-0.51-0.54-0.8  c-0.12-0.3-0.18-0.61-0.18-0.94s0.06-0.64,0.19-0.95c0.13-0.31,0.31-0.58,0.56-0.83c0.23-0.23,0.49-0.41,0.78-0.53  C172.39,0.06,172.71,0,173.05,0 M175.21,2.51c0-0.3-0.05-0.58-0.16-0.84c-0.11-0.26-0.26-0.49-0.46-0.69  c-0.21-0.21-0.44-0.37-0.7-0.48c-0.26-0.11-0.54-0.16-0.84-0.16c-0.29,0-0.57,0.05-0.83,0.16c-0.26,0.11-0.49,0.26-0.68,0.45  c-0.21,0.21-0.37,0.45-0.49,0.72c-0.12,0.27-0.17,0.54-0.17,0.82c0,0.28,0.05,0.55,0.16,0.81c0.11,0.26,0.27,0.49,0.47,0.7  c0.2,0.21,0.43,0.37,0.7,0.48c0.26,0.11,0.53,0.17,0.81,0.17c0.29,0,0.57-0.05,0.83-0.16c0.26-0.11,0.5-0.26,0.72-0.47  c0.2-0.2,0.36-0.43,0.47-0.68C175.16,3.07,175.21,2.79,175.21,2.51z M173.11,1.03c0.39,0,0.68,0.06,0.88,0.19  c0.2,0.13,0.3,0.32,0.3,0.58c0,0.2-0.06,0.37-0.17,0.5c-0.11,0.13-0.27,0.22-0.47,0.26l0.63,1.29h-0.6l-0.57-1.2h-0.52v1.2h-0.53  V1.03H173.11z M173.02,1.37h-0.44V2.3h0.45c0.25,0,0.44-0.03,0.55-0.11c0.11-0.07,0.16-0.18,0.16-0.34c0-0.17-0.06-0.29-0.17-0.37  C173.46,1.41,173.27,1.37,173.02,1.37z"></path></g></svg>