<?xml version="1.0" encoding="UTF-8"?>
<svg id="Layer_1" xmlns="http://www.w3.org/2000/svg" version="1.1" viewBox="0 0 300 100">
  <!-- Generator: Adobe Illustrator 29.6.1, SVG Export Plug-In . SVG Version: 2.1.1 Build 9)  -->
  <defs>
    <style>
      .st0 {
        fill-rule: evenodd;
      }

      .st0, .st1 {
        fill: #999;
      }
    </style>
  </defs>
  <g>
    <path class="st1" d="M138.8,57.3h-13.4l-.8,2.2h10.2c.8,0,1.4.3,1.8,1s.5,1.3.3,2.1l-1.9,5.3c-.3.9-.9,1.6-1.6,2.1-.8.5-1.6.8-2.6.8h-17l1.6-4.5h13.4l.8-2.2h-10.2c-.8,0-1.4-.3-1.8-1s-.5-1.3-.3-2.1l1.9-5.2c.3-.9.9-1.6,1.6-2.2.8-.5,1.6-.8,2.6-.8h17l-1.6,4.5Z"/>
    <path class="st1" d="M159.9,57.3l-4.9,13.4h-6.7l4.9-13.4h-6.7l1.6-4.5c8.4,0,14.8,0,19,0l-1.6,4.5h-5.6Z"/>
    <path class="st1" d="M194.2,57.3h-13.4l-.8,2.3h11.2l-1.5,3.7h-11.2l-1,2.9h13.4l-1.6,4.5h-20.1l6.5-17.9h20.1l-1.6,4.5h0Z"/>
    <path class="st1" d="M223.4,57.3h-13.4l-.8,2.3h11.2l-1.5,3.7h-11.2l-1,2.9h13.4l-1.6,4.5h-20.1l6.5-17.9h20.1l-1.6,4.5h0Z"/>
    <path class="st1" d="M240.9,52.8l-4.9,13.4h10.6l-1.6,4.5h-17.3l6.5-17.9h6.7Z"/>
    <path class="st1" d="M132.1,81.9l-1.1,3h-9l-.7,1.9h7.5l-.9,2.6h-7.5l-1.6,4.5h-4.5l4.3-11.9h13.4Z"/>
    <path class="st1" d="M133.8,93.8l4.3-11.9h11.3c.5,0,.9.2,1.2.6.3.4.4.9.2,1.4l-1.3,3.5c-.2.6-.6,1.1-1.1,1.4s-1.1.5-1.7.5h-.3l2.3,4.5h-4.5l-2.3-4.5h-2.1l-1.6,4.5h-4.5ZM141.5,84.9l-.7,1.9h4.8l.7-1.9h-4.8Z"/>
    <path class="st1" d="M153.1,93.8l3.6-10c.2-.6.6-1.1,1.1-1.4s1.1-.5,1.7-.5h11.3l-4.3,11.9h-4.5l1.1-3h-4.5l-1.1,3h-4.5,0ZM160.8,84.9l-1.1,3h4.5l1.1-3h-4.5Z"/>
    <path class="st1" d="M172.6,93.8l4.3-11.9h4.5l1.8,3.4,4.2-3.4h4.5l-4.3,11.9h-4.5c.6-1.7,1.5-4,2.5-6.9,0,0-.1.1-.2.2s-.2.1-.2.2c0,0-.2.1-.2.2l-3.6,2.9-1.3-2.8s0-.1-.1-.3-.1-.3-.2-.4,0-.2,0-.4l-2.6,7.2h-4.5Z"/>
    <path class="st1" d="M193.6,93.8l4.3-11.9h4.5l-4.3,11.9h-4.5Z"/>
    <path class="st1" d="M204.1,93.8l4.3-11.9h4.5l2.3,6,2.2-6h4.5l-4.3,11.9h-4.5l-2.3-6-2.2,6h-4.5Z"/>
    <path class="st1" d="M240.3,84.9h-9l-2.2,6h4.5l1.1-3h4.5l-1.4,4c-.2.6-.6,1.1-1.1,1.4s-1.1.5-1.7.5h-11.3l3.6-10c.2-.6.6-1.1,1.1-1.4s1.1-.5,1.7-.5h11.3l-1.1,3h0Z"/>
  </g>
  <path class="st0" d="M169.2,10.3l-115.8,31.5v-3.8L170,6.2l.7.6c11.7,8.9,23.3,17.9,35,26.8v4.7l-1.1-.9c-11.8-9-23.6-18.1-35.4-27.1"/>
  <path class="st0" d="M106.7,39.2l-53.3,12.9v5l53.3-11.8v-6h0ZM106.7,48.8l-53.3,10.9v4.9l53.3-9.8v-6.1ZM106.7,58.1l-53.3,9v4.9l53.3-7.5v-6.4h0ZM106.7,67.7l-53.3,6.7v4.5l53.3-4.8v-6.4ZM106.7,77.3l-53.3,4.1v4.6l53.3-2.4v-6.3h0ZM106.7,86.9l-53.3,1.5v4.8h53.3v-6.3ZM106.7,35.7v-6.4l-53.3,14.5v5.4s53.3-13.5,53.3-13.5Z"/>
</svg>