<?xml version="1.0" encoding="UTF-8"?>
<svg id="Layer_1" data-name="Layer 1" xmlns="http://www.w3.org/2000/svg" viewBox="0 0 147.06 50.11">
  <defs>
    <style>
      .cls-1 {
        fill: none;
        stroke: #333;
        stroke-miterlimit: 10;
        stroke-width: .25px;
      }

      .cls-2 {
        fill: #fff;
      }

      .cls-3 {
        fill: #333;
      }

      .cls-4 {
        fill: #998675;
      }
    </style>
  </defs>
  <path class="cls-4" d="M50.17,6.41v43.7H.06V.11h43.8c3.49,0,6.31,2.82,6.31,6.3Z"/>
  <path class="cls-2" d="M64.84,49.03c-1.97,0-3.57-.42-4.81-1.27-1.24-.85-2.08-1.95-2.52-3.31h2.61c.31.77.86,1.38,1.64,1.8.78.43,1.76.64,2.96.64,1.8,0,3.12-.42,3.95-1.27.83-.85,1.24-2.08,1.24-3.69v-2.17c-.59.84-1.35,1.51-2.28,2.02-.93.51-2.05.77-3.35.77-1.53,0-2.87-.35-4.01-1.05-1.14-.7-2.03-1.66-2.66-2.87-.63-1.21-.94-2.56-.94-4.05s.31-2.86.94-4.06c.63-1.2,1.51-2.15,2.66-2.86,1.14-.7,2.48-1.05,4.01-1.05,1.3,0,2.42.25,3.35.74.93.49,1.69,1.17,2.28,2.02v-2.51h2.36v15.22c0,2.24-.64,3.95-1.93,5.15-1.29,1.19-3.12,1.79-5.49,1.79ZM64.58,40.43c1.15,0,2.13-.26,2.94-.78.81-.52,1.43-1.23,1.86-2.12.43-.89.64-1.87.64-2.93s-.22-2.07-.64-2.95c-.43-.88-1.05-1.58-1.86-2.1-.81-.52-1.79-.78-2.94-.78s-2.15.26-2.99.78c-.84.52-1.48,1.22-1.92,2.1s-.66,1.86-.66,2.95.22,2.05.66,2.93c.44.89,1.08,1.6,1.92,2.12.84.52,1.83.78,2.99.78Z"/>
  <path class="cls-2" d="M76.34,42.56v-20.28h2.36v20.28h-2.36Z"/>
  <path class="cls-2" d="M137.94,42.56v-20.28h2.36v20.28h-2.36Z"/>
  <path class="cls-2" d="M89.61,42.82c-1.59,0-2.98-.36-4.15-1.08-1.17-.72-2.08-1.7-2.7-2.93-.63-1.23-.94-2.59-.94-4.08s.31-2.87.94-4.09c.63-1.22,1.53-2.2,2.7-2.92,1.17-.72,2.56-1.08,4.15-1.08s3,.36,4.17,1.08c1.16.72,2.06,1.69,2.69,2.92.63,1.22.94,2.59.94,4.09s-.31,2.85-.94,4.08c-.63,1.23-1.53,2.21-2.69,2.93-1.16.72-2.55,1.08-4.17,1.08ZM89.61,40.68c1.17,0,2.16-.27,2.97-.82.81-.54,1.42-1.27,1.84-2.18s.63-1.9.63-2.97-.21-2.08-.63-2.98c-.42-.9-1.03-1.62-1.84-2.17-.81-.54-1.8-.82-2.97-.82s-2.14.27-2.96.82c-.82.54-1.44,1.27-1.86,2.17-.42.9-.63,1.89-.63,2.98s.21,2.06.63,2.97,1.04,1.64,1.86,2.18c.82.54,1.8.82,2.96.82Z"/>
  <path class="cls-2" d="M108.51,42.82c-1.3,0-2.42-.25-3.35-.75-.93-.5-1.69-1.17-2.28-2.01v2.51h-2.36v-20.28h2.36v7.14c.59-.86,1.35-1.54,2.28-2.04.93-.5,2.05-.75,3.35-.75,1.53,0,2.87.36,4.01,1.08s2.03,1.69,2.66,2.92c.63,1.22.94,2.59.94,4.09s-.31,2.85-.94,4.08c-.63,1.23-1.51,2.21-2.66,2.93s-2.48,1.08-4.01,1.08ZM108.2,40.68c1.17,0,2.17-.27,3-.82.83-.54,1.46-1.27,1.9-2.18s.66-1.9.66-2.97-.22-2.08-.66-2.98c-.44-.9-1.07-1.62-1.9-2.17-.83-.54-1.83-.82-3-.82s-2.14.27-2.96.82c-.82.54-1.44,1.27-1.86,2.17-.42.9-.63,1.89-.63,2.98s.21,2.06.63,2.97c.42.91,1.04,1.64,1.86,2.18.82.54,1.8.82,2.96.82Z"/>
  <path class="cls-4" d="M144.01,42.56v-3.2h3.05v3.2h-3.05Z"/>
  <path class="cls-4" d="M87.74,21c-1.77,0-3.26-.29-4.48-.88-1.22-.59-2.15-1.36-2.79-2.32-.64-.96-1-2-1.08-3.13h3c.08.64.3,1.26.67,1.86.37.6.94,1.09,1.71,1.46.77.37,1.77.56,3,.56.38,0,.86-.04,1.42-.12.56-.08,1.11-.22,1.63-.42.53-.2.97-.51,1.33-.92.36-.41.54-.93.54-1.57,0-.79-.31-1.41-.92-1.84-.62-.43-1.41-.77-2.38-1.02-.98-.24-2.01-.48-3.1-.71-1.09-.23-2.12-.53-3.1-.9-.97-.37-1.77-.9-2.38-1.57-.62-.68-.92-1.61-.92-2.78,0-1.74.63-3.09,1.9-4.05,1.27-.96,3.15-1.44,5.64-1.44,1.69,0,3.07.26,4.14.79,1.06.52,1.87,1.2,2.42,2.02.55.82.88,1.7.98,2.65h-2.92c-.1-.82-.51-1.52-1.21-2.11-.71-.59-1.87-.88-3.48-.88-3.05,0-4.58.92-4.58,2.76,0,.77.31,1.36.92,1.77.62.41,1.41.74,2.38.98.97.24,2.01.47,3.1.69,1.09.22,2.12.52,3.1.9.97.38,1.77.93,2.38,1.63.62.7.92,1.66.92,2.86,0,1.87-.71,3.3-2.14,4.28-1.42.99-3.33,1.48-5.71,1.48Z"/>
  <polygon class="cls-4" points="125.96 24.26 129 24.26 138.67 1.5 135.52 1.5 129.21 17.23 123.02 1.5 119.82 1.5 127.67 20.42 125.96 24.26"/>
  <path class="cls-4" d="M56.66,15.17c0-2.72,2.02-5.05,7.48-5.05h8.3v-1.4c0-3.3-2.06-4.89-6.24-4.89-3.76,0-5.82,1.32-5.82,3.92,0,.12,0,.39.04.7h-3.06c-.04-.27-.08-.82-.08-1.17,0-3.81,3.47-6.1,9-6.1,5.99,0,9.46,2.8,9.46,7.81v11.69h-3.3c.04-.89.12-2.68.17-4.54h-.04c-.7,2.95-3.26,4.85-8.34,4.85-4.63,0-7.56-2.21-7.56-5.83ZM72.44,12.65v-.27h-8.01c-3.35,0-4.67.93-4.67,2.8s1.9,3.18,5.12,3.18c4.63,0,7.56-2.21,7.56-5.71Z"/>
  <path class="cls-2" d="M118.26,38.05c0-2.22,1.65-4.13,6.11-4.13h6.79v-1.14c0-2.7-1.69-4-5.1-4-3.07,0-4.76,1.08-4.76,3.21,0,.1,0,.32.03.57h-2.5c-.03-.22-.07-.67-.07-.95,0-3.11,2.84-4.98,7.36-4.98,4.89,0,7.73,2.29,7.73,6.38v9.56h-2.7c.03-.73.1-2.19.13-3.71h-.03c-.57,2.41-2.67,3.97-6.82,3.97-3.78,0-6.18-1.81-6.18-4.76ZM131.16,35.99v-.22h-6.55c-2.73,0-3.81.76-3.81,2.29s1.55,2.6,4.19,2.6c3.78,0,6.18-1.81,6.18-4.67Z"/>
  <path class="cls-4" d="M98.09,15.17c0-2.72,2.02-5.05,7.48-5.05h8.3v-1.4c0-3.3-2.06-4.89-6.24-4.89-3.76,0-5.82,1.32-5.82,3.92,0,.12,0,.39.04.7h-3.06c-.04-.27-.08-.82-.08-1.17,0-3.81,3.47-6.1,9-6.1,5.99,0,9.46,2.8,9.46,7.81v11.69h-3.3c.04-.89.12-2.68.17-4.54h-.04c-.7,2.95-3.26,4.85-8.34,4.85-4.63,0-7.56-2.21-7.56-5.83ZM113.87,12.65v-.27h-8.01c-3.35,0-4.67.93-4.67,2.8s1.9,3.18,5.12,3.18c4.63,0,7.56-2.21,7.56-5.71Z"/>
  <line class="cls-1" x1="3.84" y1="37.15" x2="3.84" y2=".11"/>
  <line class="cls-1" x1="6.41" y1="37.15" x2="6.41" y2=".11"/>
  <line class="cls-1" x1="22.09" y1="37.16" x2="22.09" y2=".13"/>
  <line class="cls-1" x1="28.13" y1="37.16" x2="28.13" y2=".13"/>
  <line class="cls-1" x1="43.88" y1="37.16" x2="43.88" y2=".13"/>
  <line class="cls-1" x1="24.62" y1="32.64" x2="24.62" y2=".11"/>
  <line class="cls-1" x1="25.62" y1="17.13" x2="25.62" y2=".11"/>
  <line class="cls-1" x1="46.39" y1="32.42" x2="46.39" y2=".64"/>
  <line class="cls-1" x1=".06" y1="36.32" x2="50.17" y2="7.72"/>
  <line class="cls-1" x1=".15" y1="39.19" x2="50.17" y2="10.5"/>
  <line class="cls-1" x1="50.06" y1="27.26" x2="2.44" y2=".11"/>
  <line class="cls-1" x1="50.17" y1="30.23" x2=".06" y2="1.65"/>
  <polygon class="cls-2" points="46.39 25.17 46.39 50.11 43.88 50.11 43.88 26.63 28.13 17.64 28.13 50.11 25.62 50.11 25.62 13.32 46.39 25.17"/>
  <polygon class="cls-3" points="24.62 22.32 24.62 50.11 22.11 50.11 22.11 26.63 6.35 35.62 6.35 50.11 3.84 50.11 3.84 34.16 24.62 22.32"/>
</svg>