<?xml version="1.0" encoding="UTF-8"?>
<svg id="Layer_1" data-name="Layer 1" xmlns="http://www.w3.org/2000/svg" xmlns:xlink="http://www.w3.org/1999/xlink" viewBox="0 0 250 76.08">
  <defs>
    <style>
      .cls-1 {
        fill: #ffd300;
      }

      .cls-1, .cls-2, .cls-3 {
        fill-rule: evenodd;
      }

      .cls-2 {
        fill: #3e4346;
      }

      .cls-3 {
        fill: url(#linear-gradient);
      }
    </style>
    <linearGradient id="linear-gradient" x1="-24.88" y1="88.96" x2="-24.88" y2="88.75" gradientTransform="translate(1273.22 13016.46) scale(49.09 -146.31)" gradientUnits="userSpaceOnUse">
      <stop offset="0" stop-color="#000"/>
      <stop offset="1" stop-color="#3e4346"/>
    </linearGradient>
  </defs>
  <path class="cls-2" d="M112.28,53c-9.35,0-19.4-6.05-19.4-19.3V7.46h12.76v25.48c0,4.75,3.42,7.31,6.62,7.31s6.64-2.56,6.64-7.31V7.46h12.77v26.25c0,13.25-10.05,19.3-19.38,19.3M189.27,51.73v-25.82c0-4.39-3.24-6.76-6.28-6.76s-6.27,2.39-6.27,6.84v25.74h-12.07v-25.74c0-4.44-3.22-6.84-6.24-6.84s-6.24,2.37-6.24,6.76v25.82h-12.61v-26.59c0-16.9,13.21-18.73,18.88-18.73,2.75,0,6.71.68,9.97,3.95l2.39,2.38,2.3-2.47c2.17-2.34,5.79-3.79,9.71-3.86,4.44,0,19.06,1.35,19.06,18.73v26.59h-12.61Z"/>
  <path class="cls-3" d="M43.2,41.29c2.72-.6,5.21-2.92,5.21-6.77V0h12.59v35.25c0,11.57-8.97,17.21-17.81,17.82v-11.78h0Z"/>
  <path class="cls-2" d="M232.2,35.24V0h12.59v34.52c0,3.84,2.48,6.16,5.21,6.77v11.78c-8.83-.61-17.8-6.26-17.8-17.83"/>
  <path class="cls-1" d="M223.68,0h-12.69v24.44l12.69-15.06V0Z"/>
  <path class="cls-2" d="M211,33.69v18.05h12.61V18.71l-12.61,14.98ZM68.22,35.24V0h12.58v34.52c0,3.84,2.49,6.16,5.22,6.77v11.78c-8.83-.61-17.81-6.26-17.81-17.83M0,51.79L43.62,0h17.39L17.37,51.79H0ZM8.43,69.25c0,2.14-1.29,3.29-3.62,3.29H.44v-11.33h4.46c1.85,0,3.01.99,3.01,2.75,0,.96-.57,2.09-1.81,2.44v.03c1.43.24,2.33,1.45,2.33,2.82ZM4.93,61.99H1.28v4.07h3.52c1.43,0,2.28-.94,2.28-2.05,0-1.2-.7-2.02-2.14-2.02ZM4.81,66.83H1.28v4.93h3.62c1.78,0,2.68-.96,2.68-2.47s-1.22-2.45-2.77-2.45ZM12.16,69.36c0,2.35.96,3.38,2.86,3.38.85,0,1.97-.44,2.61-1.65h.03v1.46h.8v-8.51h-.8v5.1c0,.3-.03.57-.12.85-.3,1.1-1.17,2.04-2.33,2.04-1.53,0-2.23-.84-2.23-2.84v-5.15h-.82v5.33h0ZM23.8,61.65c0-.3-.26-.54-.57-.54-.3,0-.54.24-.54.54,0,.31.24.57.56.57.3,0,.56-.26.56-.57ZM23.64,72.54v-8.51h-.8v8.51h.8ZM29.06,72.54v-11.87l-.78.37v11.51h.78ZM39.72,72.54h-.8v-.94h-.02c-.99,1.03-1.97,1.11-2.73,1.11-1.5,0-3.13-1.34-3.13-4.32,0-3.33,1.85-4.49,3.5-4.49.7,0,1.43.17,2.37,1.04h.02v-3.9l.8-.37v11.86ZM38.93,70.73v-4.82c-.52-.7-1.46-1.31-2.35-1.31-1.74,0-2.75,1.5-2.75,3.81,0,2.11,1.06,3.62,2.54,3.62,1.03,0,2-.59,2.56-1.31h0ZM45.03,61.65c0-.3-.26-.54-.57-.54-.3,0-.54.24-.54.54,0,.31.24.57.56.57.3,0,.56-.26.56-.57ZM44.87,72.54v-8.51h-.8v8.51h.8ZM55.6,67.32c0-2.33-.99-3.41-2.91-3.41-.85,0-2,.44-2.65,1.65l-.03-.02v-1.51h-.8v8.51h.8v-5.05c0-.26.03-.56.1-.8.28-1.11,1.2-2.07,2.39-2.07,1.53,0,2.28.87,2.28,2.82v5.1h.82v-5.22h0ZM65.9,72.06c0,1.92-.94,3.31-3.15,4.02l-.28-.68c2.11-.77,2.63-1.93,2.63-3.08v-.8h-.02c-1.08.99-2.04,1.17-2.68,1.17-1.65,0-3.19-1.1-3.19-4.42,0-2.96,1.71-4.35,3.24-4.35.73,0,1.67.1,2.61,1.11h.02v-.97h.82v8.01h0ZM62.57,72c.96,0,2-.7,2.52-1.38v-4.7c-.54-.71-1.5-1.34-2.51-1.34-1.46,0-2.58,1.55-2.58,3.6,0,2.35.8,3.81,2.56,3.81h0ZM78.77,63.91c2.16,0,3.41,1.71,3.41,4.23v.47h-6.06c.07,2.26,1.29,3.41,2.77,3.41.75,0,1.48-.31,2.09-.85l.47.52c-.77.7-1.64,1.03-2.66,1.03-1.79,0-3.46-1.39-3.46-4.39,0-2.73,1.5-4.42,3.45-4.42h0ZM81.4,67.97c-.02-1.81-.8-3.36-2.66-3.36-1.43,0-2.51,1.38-2.61,3.36h5.28,0ZM91.29,72.54l-2.59-4.42,2.42-4.07h-.89l-1.97,3.4-1.97-3.4h-.89l2.4,4.13-2.59,4.37h.89l2.14-3.69,2.09,3.69h.96ZM97.95,63.91c-1.86,0-3.43,1.5-3.43,4.4s1.57,4.4,3.4,4.4c1.22,0,1.98-.42,2.61-1.1l-.52-.5c-.68.61-1.24.87-2.04.87-1.65,0-2.63-1.58-2.63-3.67s.96-3.69,2.56-3.69c.73,0,1.43.23,2.09.85l.54-.56c-.73-.71-1.53-1.01-2.58-1.01h0ZM107.26,63.91c2.16,0,3.41,1.71,3.41,4.23v.47h-6.06c.07,2.26,1.29,3.41,2.77,3.41.75,0,1.48-.31,2.09-.85l.47.52c-.77.7-1.64,1.03-2.66,1.03-1.79,0-3.46-1.39-3.46-4.39,0-2.73,1.5-4.42,3.45-4.42h0ZM109.89,67.97c-.02-1.81-.8-3.36-2.66-3.36-1.43,0-2.51,1.38-2.61,3.36h5.28ZM115.28,72.54v-11.87l-.78.37v11.51h.78ZM120.47,72.54v-11.87l-.78.37v11.51h.78ZM127.89,63.91c2.16,0,3.41,1.71,3.41,4.23v.47h-6.06c.07,2.26,1.29,3.41,2.77,3.41.75,0,1.48-.31,2.09-.85l.47.52c-.77.7-1.64,1.03-2.66,1.03-1.79,0-3.46-1.39-3.46-4.39,0-2.73,1.5-4.42,3.45-4.42h0ZM130.52,67.97c-.02-1.81-.8-3.36-2.66-3.36-1.43,0-2.51,1.38-2.61,3.36h5.28ZM141.21,67.32c0-2.33-.99-3.41-2.91-3.41-.85,0-2,.44-2.65,1.65l-.03-.02v-1.51h-.8v8.51h.8v-5.05c0-.26.03-.56.1-.8.28-1.11,1.2-2.07,2.39-2.07,1.53,0,2.28.87,2.28,2.82v5.1h.82v-5.22ZM148.25,63.91c-1.86,0-3.43,1.5-3.43,4.4s1.57,4.4,3.4,4.4c1.22,0,1.98-.42,2.61-1.1l-.52-.5c-.68.61-1.24.87-2.04.87-1.65,0-2.63-1.58-2.63-3.67s.96-3.69,2.56-3.69c.73,0,1.43.23,2.09.85l.54-.56c-.73-.71-1.53-1.01-2.58-1.01h0ZM157.57,63.91c2.16,0,3.41,1.71,3.41,4.23v.47h-6.06c.07,2.26,1.29,3.41,2.77,3.41.75,0,1.48-.31,2.09-.85l.47.52c-.77.7-1.64,1.03-2.66,1.03-1.79,0-3.46-1.39-3.46-4.39,0-2.73,1.5-4.42,3.45-4.42h0ZM160.2,67.97c-.02-1.81-.8-3.36-2.66-3.36-1.43,0-2.51,1.38-2.61,3.36h5.28ZM173.52,63.91c2.16,0,3.41,1.71,3.41,4.23v.47h-6.06c.07,2.26,1.29,3.41,2.77,3.41.75,0,1.48-.31,2.09-.85l.47.52c-.77.7-1.64,1.03-2.66,1.03-1.79,0-3.46-1.39-3.46-4.39,0-2.73,1.5-4.42,3.45-4.42h0ZM176.15,67.97c-.02-1.81-.8-3.36-2.66-3.36-1.43,0-2.51,1.38-2.61,3.36h5.28ZM183.73,72.54c1.01-2.84,2.02-5.66,3.05-8.5h-.84l-1.76,5.07-.84,2.44h-.03l-.85-2.44c-.61-1.69-1.2-3.36-1.79-5.07h-.85l3.1,8.5h.82ZM192.99,63.91c2.16,0,3.41,1.71,3.41,4.23v.47h-6.06c.07,2.26,1.29,3.41,2.77,3.41.75,0,1.48-.31,2.09-.85l.47.52c-.77.7-1.64,1.03-2.66,1.03-1.79,0-3.46-1.39-3.46-4.39,0-2.73,1.5-4.42,3.45-4.42h0ZM195.62,67.97c-.02-1.81-.8-3.36-2.66-3.36-1.43,0-2.51,1.38-2.61,3.36h5.28ZM201.04,65.42l.02-1.38h-.82v8.5h.82v-5.08c0-1.53.85-2.72,2.45-2.72.3,0,.59.03.92.1l.17-.8c-.33-.1-.66-.14-.99-.14-1.03,0-2.07.47-2.54,1.53l-.03-.02h0ZM209.84,75.73c1.41-3.83,2.86-7.83,4.27-11.68h-.82l-1.69,4.67-1.03,2.91h-.02c-.35-.97-.68-1.95-1.01-2.91l-1.67-4.67h-.84c1.04,2.89,2.09,5.75,3.15,8.6l-1.11,3.08h.77,0ZM229.62,72.54h-.8v-.94h-.02c-.99,1.03-1.97,1.11-2.73,1.11-1.5,0-3.13-1.34-3.13-4.32,0-3.33,1.85-4.49,3.5-4.49.7,0,1.43.17,2.37,1.04h.02v-3.9l.8-.37v11.86ZM228.84,70.73v-4.82c-.52-.7-1.46-1.31-2.35-1.31-1.74,0-2.75,1.5-2.75,3.81,0,2.11,1.06,3.62,2.54,3.62,1.03,0,2-.59,2.56-1.31h0ZM238.84,72.54v-.99h-.02c-1.1,1.04-2.09,1.15-2.91,1.15-1.32,0-2.75-.71-2.75-2.59,0-1.55,1.15-2.7,3.12-2.7.73,0,1.62.12,2.56.68v-1.36c0-1.51-.8-2.11-2.25-2.11-.82,0-1.57.23-2.25.54l-.28-.68c.78-.35,1.58-.57,2.63-.57,1.88,0,2.94.89,2.94,2.65v5.99h-.8ZM238.84,68.78c-.84-.45-1.53-.73-2.59-.73-1.29,0-2.3.71-2.3,2.02s.82,1.98,2.21,1.98c1.13-.05,1.98-.61,2.68-1.32v-1.95h0ZM245.72,75.73c1.41-3.83,2.86-7.83,4.27-11.68h-.82l-1.69,4.67-1.03,2.91h-.02c-.35-.97-.68-1.95-1.01-2.91l-1.67-4.67h-.84c1.04,2.89,2.09,5.75,3.15,8.6l-1.11,3.08h.77,0Z"/>
</svg>