<?xml version="1.0" encoding="UTF-8"?>
<svg id="Layer_1" data-name="Layer 1" xmlns="http://www.w3.org/2000/svg" viewBox="0 0 460 160">
  <defs>
    <style>
      .cls-1 {
        fill: #1a1a1a;
      }

      .cls-2 {
        fill: #999;
      }
    </style>
  </defs>
  <polygon class="cls-1" points="0 160 10.92 160 10.92 96.76 79.41 57.77 79.41 160 90.33 160 90.33 39.02 0 90.44 0 160"/>
  <polygon class="cls-2" points="94.66 160 105.58 160 105.58 18.75 174.07 57.74 174.07 160 184.99 160 184.99 51.43 94.66 0 94.66 160"/>
  <rect class="cls-1" y="149.12" width="184.99" height="10.88"/>
  <rect class="cls-2" x="174.07" y="141.41" width="10.92" height="18.59"/>
  <path class="cls-1" d="M200.89,49.87c.66,31.89.65,67.36,0,99.27-.65-31.92-.66-67.37,0-99.27h0Z"/>
  <g>
    <g>
      <path d="M309.83,63.94c0-5.91,0-10.49-.11-14.73h40.09c19.04,0,25.87,6.02,25.87,23.65v.45c0,12.72-4.26,20.19-18.03,22.54,2.46,4.02,5.15,8.7,8.17,13.61,3.7,6.02,7.73,12.5,11.98,18.97h-13.21c-2.8-4.8-5.82-9.82-8.73-14.73l-9.74-16.18h-25.76v16.73c0,5.69,0,10.04.11,14.17h-10.75c.11-4.13.11-8.48.11-14.28v-50.2ZM320.36,58.58v29.45h29.45c10.75,0,14.89-4.35,14.89-15.06v-.22c0-10.82-4.14-14.17-14.89-14.17h-29.45Z"/>
      <path d="M387.89,90.6v-3.57c0-30.35,9.63-39.38,36.17-39.38s35.83,7.03,35.83,27.11l-10.08.22c-.22-13.83-5.04-17.63-25.31-17.63s-25.98,6.81-25.98,30.79v1.34c0,24.77,5.71,30.79,26.31,30.79s24.97-3.57,24.75-22.76h-29.45v-9.37h39.86c-.11,3.57-.11,6.69-.11,9.82,0,25.33-8.62,32.02-35.5,32.02s-36.5-9.04-36.5-39.38Z"/>
      <path d="M266.38,49.21h-16.46c-6.05,15.84-25.2,64.04-31.58,79.21h11.31l7.05-18.63h0l6.29-16.59,1.66-4.38c3.92-10.49,7.95-21.31,11.09-29.56h4.37c3.02,8.26,6.83,18.97,10.64,29.45l4.37,11.94h-19.6l3.33,9.15h19.52l6.83,18.63h11.76c-6.27-15.17-24.75-63.37-30.57-79.21Z"/>
      <polygon class="cls-2" points="253.83 100.66 257.65 109.76 289.67 109.76 285.97 100.61 253.83 100.66"/>
      <polygon class="cls-2" points="359.5 119.82 372.26 119.82 377.8 128.42 364.59 128.42 359.5 119.82"/>
      <rect class="cls-2" x="420.14" y="88.15" width="10.11" height="9.37"/>
    </g>
    <g>
      <path class="cls-2" d="M218.34,147.66v-.52l.76-.02v.53c0,2.25,1,2.96,4.68,2.96s4.25-.79,4.25-2.69-.7-2.52-4.47-3.04c-3.97-.53-4.97-1.2-4.97-3.65s1.09-3.48,4.66-3.48c3.92,0,5.01.88,5.01,3.46v.39l-.74.02v-.4c0-2.08-.96-2.73-4.29-2.73-2.96,0-3.81.77-3.81,2.74s.8,2.39,4.27,2.87c4.34.59,5.18,1.58,5.18,3.81s-.91,3.43-5.08,3.43-5.43-.88-5.43-3.7Z"/>
      <path class="cls-2" d="M235.69,138.73h-1.83c-.94,0-1.9,0-3.59.02v-.72h11.65v.72c-1.28-.02-2.09-.02-3.03-.02h-2.38v10.02c0,.94,0,1.66.02,2.36h-.85c.02-.7.02-1.4.02-2.36v-10.02Z"/>
      <path class="cls-2" d="M244.38,140.48c0-.99,0-1.75-.02-2.45h6.23c2.72,0,4.05,1.03,4.05,3.67v.07c0,2.01-.92,3.28-2.96,3.57.39.61.89,1.49,1.42,2.47.57,1.05,1.24,2.21,1.87,3.3h-1.02c-.44-.85-.94-1.8-1.46-2.73l-1.63-2.93h-5.68v3.3c0,.94,0,1.68.02,2.36h-.85c.02-.68.02-1.4.02-2.36v-8.27ZM245.19,138.73v6.02h5.31c2.16,0,3.31-.85,3.31-2.98v-.07c0-2.15-1.04-2.96-3.22-2.96h-5.4Z"/>
      <path class="cls-2" d="M267.86,140.5v1.38c0,1.03.02,2.23.02,4.31,0,3.79-1.13,5.18-5.12,5.18s-5.12-1.38-5.12-5.18c0-2.04.02-3.28.02-4.31v-1.36c0-1.03,0-1.84-.02-2.49h.83c-.04.7-.02,1.53-.02,2.45v5.71c0,3.3.81,4.44,4.31,4.44s4.31-1.14,4.31-4.44v-5.67c0-.94,0-1.77-.02-2.49h.83c-.02.64-.02,1.45-.02,2.47Z"/>
      <path class="cls-2" d="M271.02,144.86v-.59c0-4.95,1.22-6.5,5.66-6.5s5.4,1.42,5.4,4.84l-.76.02c0-3-.91-4.13-4.64-4.13s-4.82,1.22-4.82,5.76v.59c0,4.57,1.05,5.76,4.82,5.76s4.68-1.12,4.68-4.13l.76.02c0,3.43-1,4.84-5.44,4.84s-5.66-1.53-5.66-6.5Z"/>
      <path class="cls-2" d="M288.68,138.73h-1.83c-.94,0-1.9,0-3.59.02v-.72h11.65v.72c-1.28-.02-2.09-.02-3.03-.02h-2.38v10.02c0,.94,0,1.66.02,2.36h-.85c.02-.7.02-1.4.02-2.36v-10.02Z"/>
      <path class="cls-2" d="M307.35,140.5v1.38c0,1.03.02,2.23.02,4.31,0,3.79-1.13,5.18-5.12,5.18s-5.12-1.38-5.12-5.18c0-2.04.02-3.28.02-4.31v-1.36c0-1.03,0-1.84-.02-2.49h.83c-.04.7-.02,1.53-.02,2.45v5.71c0,3.3.81,4.44,4.31,4.44s4.31-1.14,4.31-4.44v-5.67c0-.94,0-1.77-.02-2.49h.83c-.02.64-.02,1.45-.02,2.47Z"/>
      <path class="cls-2" d="M311.46,140.48c0-.99,0-1.75-.02-2.45h6.23c2.72,0,4.05,1.03,4.05,3.67v.07c0,2.01-.92,3.28-2.96,3.57.39.61.89,1.49,1.42,2.47.57,1.05,1.24,2.21,1.87,3.3h-1.02c-.44-.85-.94-1.8-1.46-2.73l-1.63-2.93h-5.68v3.3c0,.94,0,1.68.02,2.36h-.85c.02-.68.02-1.4.02-2.36v-8.27ZM312.27,138.73v6.02h5.31c2.16,0,3.31-.85,3.31-2.98v-.07c0-2.15-1.04-2.96-3.22-2.96h-5.4Z"/>
      <path class="cls-2" d="M329.98,138.03c.94,2.62,3.99,10.57,4.99,13.08h-.98l-1.2-3.26h-7.28l-1.24,3.26h-.89c1.02-2.5,4.07-10.46,5.07-13.08h1.53ZM325.79,147.15h6.75l-1.5-4.05c-.63-1.71-1.26-3.33-1.65-4.38h-.37c-.43,1.09-1.05,2.69-1.72,4.44l-1.52,4Z"/>
      <path class="cls-2" d="M337.71,151.11c.02-.68.02-1.42.02-2.36v-8.18c0-1.03,0-1.8-.02-2.54h.85c-.02.74-.02,1.49-.02,2.54v9.84h3.12c1.85,0,2.75,0,4.21-.02v.72h-8.17Z"/>
      <path class="cls-2" d="M352.86,147.66v-.52l.76-.02v.53c0,2.25,1,2.96,4.68,2.96s4.25-.79,4.25-2.69-.7-2.52-4.47-3.04c-3.97-.53-4.97-1.2-4.97-3.65s1.09-3.48,4.66-3.48c3.92,0,5.01.88,5.01,3.46v.39l-.74.02v-.4c0-2.08-.96-2.73-4.29-2.73-2.96,0-3.81.77-3.81,2.74s.8,2.39,4.27,2.87c4.34.59,5.18,1.58,5.18,3.81s-.91,3.43-5.08,3.43-5.43-.88-5.43-3.7Z"/>
      <path class="cls-2" d="M365.71,144.86v-.59c0-4.97,1.22-6.5,5.69-6.5s5.69,1.53,5.69,6.5v.59c0,4.97-1.22,6.5-5.69,6.5s-5.69-1.53-5.69-6.5ZM376.26,144.86v-.59c0-4.57-1.05-5.76-4.86-5.76s-4.86,1.22-4.86,5.76v.59c0,4.57,1.05,5.76,4.86,5.76s4.86-1.2,4.86-5.76Z"/>
      <path class="cls-2" d="M380.46,151.11c.02-.68.02-1.42.02-2.36v-8.18c0-1.03,0-1.8-.02-2.54h.85c-.02.74-.02,1.49-.02,2.54v9.84h3.12c1.85,0,2.75,0,4.21-.02v.72h-8.17Z"/>
      <path class="cls-2" d="M400.54,140.5v1.38c0,1.03.02,2.23.02,4.31,0,3.79-1.13,5.18-5.12,5.18s-5.12-1.38-5.12-5.18c0-2.04.02-3.28.02-4.31v-1.36c0-1.03,0-1.84-.02-2.49h.83c-.04.7-.02,1.53-.02,2.45v5.71c0,3.3.81,4.44,4.31,4.44s4.31-1.14,4.31-4.44v-5.67c0-.94,0-1.77-.02-2.49h.83c-.02.64-.02,1.45-.02,2.47Z"/>
      <path class="cls-2" d="M408.19,138.73h-1.83c-.94,0-1.9,0-3.59.02v-.72h11.65v.72c-1.28-.02-2.09-.02-3.03-.02h-2.38v10.02c0,.94,0,1.66.02,2.36h-.85c.02-.7.02-1.4.02-2.36v-10.02Z"/>
      <path class="cls-2" d="M416.9,140.48c0-.99,0-1.73-.02-2.45h.85c-.02.74-.02,1.47-.02,2.51v8.21c0,.94,0,1.68.02,2.36h-.85c.02-.68.02-1.4.02-2.36v-8.27Z"/>
      <path class="cls-2" d="M421.12,144.86v-.59c0-4.97,1.22-6.5,5.69-6.5s5.69,1.53,5.69,6.5v.59c0,4.97-1.22,6.5-5.69,6.5s-5.69-1.53-5.69-6.5ZM431.67,144.86v-.59c0-4.57-1.05-5.76-4.86-5.76s-4.86,1.22-4.86,5.76v.59c0,4.57,1.05,5.76,4.86,5.76s4.86-1.2,4.86-5.76Z"/>
      <path class="cls-2" d="M435.89,148.71v-8.1c0-1.07,0-1.82-.02-2.58h1.61l4.14,6.74c1.31,2.15,2.59,4.29,3.4,5.65h.41c-.04-1.57-.09-5.1-.09-6.96,0-1.47,0-3.98-.02-5.43h.85c-.02.72-.02,1.45-.02,2.47v8.21c0,.98,0,1.69.02,2.39h-1.59l-4.31-7.05c-1.24-2.01-2.44-4-3.25-5.34h-.39c0,1.53.07,4.14.07,7.15,0,1.29,0,3.79.02,5.25h-.85c.02-.7.02-1.42.02-2.39Z"/>
      <path class="cls-2" d="M449.48,147.66v-.52l.76-.02v.53c0,2.25,1,2.96,4.68,2.96s4.25-.79,4.25-2.69-.7-2.52-4.47-3.04c-3.97-.53-4.97-1.2-4.97-3.65s1.09-3.48,4.66-3.48c3.92,0,5.01.88,5.01,3.46v.39l-.74.02v-.4c0-2.08-.96-2.73-4.29-2.73-2.96,0-3.81.77-3.81,2.74s.8,2.39,4.27,2.87c4.34.59,5.18,1.58,5.18,3.81s-.91,3.43-5.08,3.43-5.43-.88-5.43-3.7Z"/>
    </g>
  </g>
</svg>