<?xml version="1.0" encoding="UTF-8"?>
<svg id="Layer_1" xmlns="http://www.w3.org/2000/svg" version="1.1" viewBox="0 0 100 100">
  <!-- Generator: Adobe Illustrator 30.1.0, SVG Export Plug-In . SVG Version: 2.1.1 Build 136)  -->
  <defs>
    <style>
      .st0 {
        fill: #fff;
      }

      .st1 {
        fill: none;
      }
    </style>
  </defs>
  <rect class="st1" x="58.75" y="-85.94" width="56.69" height="56.69"/>
  <g>
    <path class="st0" d="M0,100V0h100v100H0ZM70.05,28.18v3.95s8.01.08,8.01.08v35.95s-56.01-.02-56.01-.02v-35.92s7.96-.09,7.96-.09l-.06-3.96H10.13s-.06,3.97-.06,3.97l7.95.05.03,39.96h64s.04-39.94.04-39.94l7.9-.08-.07-3.96h-19.86Z"/>
    <polygon points="70.05 28.18 89.91 28.17 89.98 32.13 82.08 32.21 82.04 72.15 18.04 72.15 18.01 32.19 10.07 32.14 10.13 28.18 29.96 28.18 30.01 32.13 22.06 32.22 22.05 68.14 78.05 68.16 78.06 32.21 70.06 32.13 70.05 28.18"/>
  </g>
</svg>