<?xml version="1.0" encoding="UTF-8"?>
<svg id="Layer_1" xmlns="http://www.w3.org/2000/svg" version="1.1" viewBox="0 0 100 100">
  <!-- Generator: Adobe Illustrator 30.1.0, SVG Export Plug-In . SVG Version: 2.1.1 Build 136)  -->
  <defs>
    <style>
      .st0 {
        fill: #fff;
      }

      .st1 {
        fill: none;
      }
    </style>
  </defs>
  <rect class="st1" x="58.75" y="-85.94" width="56.69" height="56.69"/>
  <g>
    <path d="M5.65,44.65l-.05,51.44c0,1.01-2.58.95-2.58.14v-54.73s41.65-.03,41.65-.03l.1,15.32,16.99.03.02-27.51-19.63-.13.03-26.19h54.77s.05,26.17.05,26.17l-19.57.13v46.01s-32.67.08-32.67.08l-.02,20.38c-.22.47-.77,1.36-1.09,1.21l-1.5-.72v-51.67s-36.51.06-36.51.06ZM94.43,26.03l-.08-19.92-49.61.02.06,19.93,49.63-.03ZM44.88,72.28l29.95-.03V29.32s-10.4-.09-10.4-.09l-.08,30.7-19.56.06.08,12.28Z"/>
    <polygon class="st0" points="94.43 26.03 44.79 26.06 44.73 6.14 94.34 6.11 94.43 26.03"/>
    <polygon class="st0" points="44.88 72.28 44.79 60 64.36 59.93 64.43 29.23 74.83 29.32 74.83 72.25 44.88 72.28"/>
  </g>
  <rect class="st1" x="137.47" y="69.26" width="56.69" height="56.69"/>
</svg>