<?xml version="1.0" encoding="UTF-8"?>
<svg id="Layer_1" xmlns="http://www.w3.org/2000/svg" version="1.1" viewBox="0 0 100 100">
  <!-- Generator: Adobe Illustrator 30.1.0, SVG Export Plug-In . SVG Version: 2.1.1 Build 136)  -->
  <defs>
    <style>
      .st0 {
        fill: #fff;
      }

      .st1 {
        fill: none;
      }
    </style>
  </defs>
  <rect class="st1" x="58.75" y="-85.94" width="56.69" height="56.69"/>
  <g>
    <path d="M45.3,71.53l-.07,25.31c-1.72.23-3.58.23-5.34-.07V32.49l-37.58-.03-.05-5.36,42.98.03.04,14.79,22.78.03.04-38.36c0-.66,2-.75,2.68-.35v79.05h24.27V3.55c.51-.63,1.55-.67,2.69-.32v81.73h-29.63l-.07-13.4-22.75-.04h.01ZM68.1,68.8l-.03-24.21-22.81.04v24.14s22.83.03,22.83.03Z"/>
    <polygon class="st0" points="68.1 68.8 45.26 68.77 45.26 44.63 68.08 44.59 68.1 68.8"/>
  </g>
  <rect class="st1" x="258.14" y="11.91" width="56.69" height="56.69"/>
</svg>