<?xml version="1.0" encoding="UTF-8"?>
<svg id="Layer_1" xmlns="http://www.w3.org/2000/svg" version="1.1" viewBox="0 0 100 100">
  <!-- Generator: Adobe Illustrator 30.1.0, SVG Export Plug-In . SVG Version: 2.1.1 Build 136)  -->
  <defs>
    <style>
      .st0 {
        fill: #fff;
      }
    </style>
  </defs>
  <path d="M74.74,91.46l21.79.06c.6,1.37.6,3.49.15,5.48H3.59c-.78-1.43-.78-3.97-.06-5.47l21.82-.09.05-21.53,11.73-.05.04-66.21c0-.91,2.21-.85,2.3.05v66.17h21.12V3.73c.35-.62,1.26-.79,2.34-.64l.04,66.71,11.71.08.07,21.56v.02ZM72.28,91.49v-18.56l-44.56.03.07,18.53s44.49,0,44.49,0Z"/>
  <polygon class="st0" points="72.28 91.49 27.78 91.49 27.71 72.96 72.29 72.93 72.28 91.49"/>
</svg>