<?xml version="1.0" encoding="UTF-8"?>
<svg id="Layer_1" data-name="Layer 1" xmlns="http://www.w3.org/2000/svg" viewBox="0 0 114.2 69.04">
  <defs>
    <style>
      .cls-1 {
        fill: #737378;
      }

      .cls-2 {
        fill: #fe0009;
      }
    </style>
  </defs>
  <path class="cls-2" d="M52.5,35.01c1.78,0,2.08-1.66,2.08-3.21s-.3-3.21-2.08-3.21-2.07,1.67-2.07,3.21.3,3.21,2.07,3.21M52.5,36.95c-2.63.17-4.9-1.83-5.07-4.46-.01-.23-.01-.46,0-.69-.21-2.63,1.75-4.93,4.38-5.14.23-.02.45-.02.68,0,2.63-.17,4.9,1.82,5.08,4.45.02.23.01.46,0,.7.21,2.63-1.74,4.93-4.36,5.14-.24.02-.47.02-.71,0M60.37,26.95v-1.91l2.9-1.05v2.96h2.19v1.93h-2.18v4.51c0,1.28.2,1.62,1.2,1.62.31,0,.62-.04.93-.06v1.7c-.75.18-1.51.28-2.28.29-2.26,0-2.75-1.18-2.75-3.29v-4.78h-1.96v-1.93h1.95ZM71.84,35.01c1.79,0,2.07-1.66,2.07-3.21s-.28-3.21-2.07-3.21-2.07,1.67-2.07,3.21.29,3.21,2.07,3.21M71.84,36.95c-2.63.17-4.9-1.82-5.06-4.45-.01-.23-.01-.46,0-.69-.04-2.8,2.2-5.1,4.99-5.13s5.1,2.2,5.13,4.99c0,.05,0,.09,0,.14.21,2.62-1.74,4.92-4.36,5.14-.23.02-.47.02-.7,0M37.8,24.92h2.52c1.31.02,2.09.55,2.09,1.79s-.78,1.9-2.09,1.92h-2.52v-3.71ZM46.79,36.62l-3.82-6.19c1.54-.65,2.56-2.14,2.63-3.81,0-2.71-2.45-4.01-4.85-4.03h-5.97v14.03h3.03v-5.7h1.94l3.49,5.7h3.54ZM54.08,0l36.62,36.62h-3.02L52.87,1.79,18.18,36.62H0L36.63,0h17.46Z"/>
  <path class="cls-1" d="M43.19,53.63h-1.31l-2.19-6.96-2.13,6.96h-1.34l-2.12-7.95h1.09l1.75,7.04,2.16-7.04h1.25l2.21,7.03,1.74-7.03h1.01l-2.11,7.95Z"/>
  <path class="cls-1" d="M46.4,46.65v-.98h1.08v.98h-1.08ZM46.46,53.63v-5.56h.97v5.56h-.97Z"/>
  <path class="cls-1" d="M52.91,53.63v-3.08c0-.97-.11-1.8-1.29-1.8s-1.53,1.09-1.53,2.11v2.77h-.97v-4.13c0-.47-.02-1.11-.03-1.43h.96l.03.89c.39-.62,1.08-.98,1.81-.96,1.45,0,1.98.8,1.98,2.17v3.46h-.97Z"/>
  <path class="cls-1" d="M59.5,53.63l-.06-.85c-.38.62-1.06.98-1.78.94-1.68,0-2.43-1.41-2.43-2.92s.76-2.85,2.4-2.85c.75-.06,1.46.33,1.81.99v-3.28h.97v6.34c0,.53,0,1.08.03,1.62h-.95ZM57.78,48.65c-1.2,0-1.54,1.19-1.54,2.19,0,1.08.41,2.19,1.66,2.19s1.55-1.17,1.55-2.17c0-1.06-.44-2.21-1.67-2.21Z"/>
  <path class="cls-1" d="M64.52,53.75c-1.46.06-2.7-1.08-2.75-2.55,0-.13,0-.25.01-.38-.13-1.45.95-2.74,2.4-2.86.12-.01.23-.01.35,0,1.43-.08,2.65,1.01,2.73,2.44,0,.14,0,.29-.01.43.13,1.48-.96,2.78-2.44,2.92-.1,0-.19.01-.29.01ZM64.52,48.65c-1.24,0-1.72,1.09-1.72,2.18s.46,2.27,1.72,2.27,1.72-1.21,1.72-2.27-.47-2.18-1.72-2.18h0Z"/>
  <path class="cls-1" d="M74.85,53.63h-.96l-1.55-4.6-1.58,4.6h-.99l-1.97-5.56h1.08l1.43,4.55,1.53-4.56h1.11l1.5,4.5,1.42-4.5h.97l-1.98,5.56Z"/>
  <path class="cls-1" d="M85.49,49.76v3.87h-2.74c-1.42,0-3.12-.4-3.12-2.23-.02-1.07.8-1.97,1.87-2.05-.9-.08-1.57-.88-1.51-1.78,0-1.45,1.45-2.06,2.63-2.06.49.01.98.06,1.46.14v.85c-.42-.12-.84-.19-1.28-.2-.85,0-1.79.33-1.79,1.38,0,1.19,1.3,1.34,2.17,1.34h1.33v-1.73h.98v1.73h1.44v.74h-1.44ZM84.52,49.77h-1.37c-1.02,0-2.45.12-2.45,1.52s1.61,1.54,2.65,1.54h1.17v-3.06Z"/>
  <path class="cls-1" d="M93.52,53.58c-.44.04-.9.04-1.34.04h-1.91v-7.95h2.33c.75-.02,1.49.09,2.2.33,1.52.63,2.01,2,2.01,3.62,0,2.18-1.01,3.73-3.29,3.96ZM94.6,46.94c-.62-.37-1.35-.53-2.07-.47h-1.23v6.36h1.43c2.17,0,3-1.12,3-3.2.08-1.03-.34-2.03-1.13-2.69Z"/>
  <path class="cls-1" d="M100.64,53.75c-1.46.06-2.69-1.08-2.75-2.55,0-.13,0-.25.01-.38-.13-1.45.95-2.74,2.4-2.86.12-.01.23-.01.35,0,1.43-.08,2.65,1.01,2.73,2.44,0,.14,0,.29-.01.43.13,1.48-.96,2.78-2.44,2.92-.1,0-.19.01-.29.01ZM100.64,48.65c-1.24,0-1.71,1.09-1.71,2.18s.46,2.27,1.71,2.27,1.72-1.21,1.72-2.27-.47-2.18-1.72-2.18h0Z"/>
  <path class="cls-1" d="M107.15,53.75c-1.46.06-2.69-1.08-2.75-2.55,0-.13,0-.25.01-.38-.13-1.45.95-2.74,2.4-2.86.12-.01.23-.01.35,0,1.43-.08,2.65,1.01,2.73,2.44,0,.14,0,.29-.01.43.13,1.48-.96,2.78-2.44,2.92-.1,0-.19.01-.29.01ZM107.15,48.65c-1.24,0-1.71,1.09-1.71,2.18s.46,2.27,1.71,2.27,1.72-1.21,1.72-2.27c0-1.09-.47-2.18-1.72-2.18h0Z"/>
  <path class="cls-1" d="M113.73,48.93c-1.14,0-1.52.65-1.52,1.71v2.99h-.97v-3.93c0-.54-.01-1.09-.03-1.63h.95l.04.89c.34-.61,1-.97,1.69-.92.1,0,.21,0,.31.02v.91c-.16-.03-.31-.04-.47-.04Z"/>
  <path class="cls-1" d="M37.55,59.69v7.14h-1.02v-7.14h-2.53v-.81h6.1v.81h-2.54Z"/>
  <path class="cls-1" d="M40.81,64.23v.11c-.12.95.55,1.82,1.51,1.95.05,0,.11.01.16.01.74.03,1.37-.53,1.43-1.26h.92c-.16,1.19-1.24,2.04-2.43,1.91-1.73,0-2.56-1.15-2.56-2.81s.84-2.97,2.64-2.97,2.39,1.44,2.39,3.06h-4.06ZM42.45,61.83c-1.02,0-1.53.84-1.62,1.76h3.08c.01-.91-.45-1.76-1.46-1.76h0Z"/>
  <path class="cls-1" d="M48.6,66.95c-1.41.09-2.62-.99-2.71-2.4,0-.15,0-.29.01-.44-.17-1.47.88-2.8,2.36-2.98.13-.02.26-.02.39-.02,1.12-.13,2.13.68,2.26,1.79,0,.05,0,.1.01.15h-.95c.02-.68-.52-1.25-1.2-1.27-.04,0-.08,0-.12,0-1.31,0-1.73,1.14-1.73,2.27,0,1.06.45,2.22,1.68,2.22.73.04,1.35-.52,1.39-1.25,0-.03,0-.05,0-.08h.95c-.06,1.17-1.05,2.06-2.21,2-.04,0-.09,0-.13-.01Z"/>
  <path class="cls-1" d="M56.03,66.83v-3.08c0-.97-.11-1.82-1.29-1.82s-1.53.95-1.53,1.96v2.94h-.97v-7.95h.97v3.27c.39-.61,1.07-.96,1.79-.94,1.47,0,2,.8,2,2.17v3.45h-.97Z"/>
  <path class="cls-1" d="M62.46,66.83v-3.08c0-.97-.11-1.8-1.29-1.8s-1.53,1.09-1.53,2.11v2.77h-.97v-4.13c0-.47-.02-1.11-.03-1.43h.96l.03.89c.39-.62,1.08-.98,1.81-.96,1.45,0,1.98.8,1.98,2.17v3.45h-.97Z"/>
  <path class="cls-1" d="M67.49,66.95c-1.6,0-2.9-1.3-2.89-2.91,0-1.6,1.3-2.9,2.91-2.89h0c1.43-.08,2.65,1.01,2.73,2.44,0,.14,0,.29-.01.43.13,1.48-.96,2.78-2.43,2.92-.1,0-.2.01-.3.01ZM67.49,61.84c-1.24,0-1.72,1.09-1.72,2.18s.46,2.27,1.72,2.27,1.72-1.21,1.72-2.27-.47-2.18-1.72-2.18Z"/>
  <path class="cls-1" d="M71.6,66.83v-7.95h.97v7.95h-.97Z"/>
  <path class="cls-1" d="M76.68,66.95c-1.6,0-2.9-1.3-2.89-2.9,0-1.6,1.3-2.9,2.9-2.9h0c1.43-.08,2.65,1.02,2.73,2.45,0,.14,0,.29-.01.43.13,1.48-.96,2.78-2.44,2.92-.1,0-.19.01-.29.01ZM76.68,61.84c-1.24,0-1.72,1.09-1.72,2.18s.46,2.27,1.72,2.27,1.72-1.21,1.72-2.27c0-1.09-.47-2.18-1.72-2.18Z"/>
  <path class="cls-1" d="M85.69,63.2v2.06c0,2.14-.1,3.79-2.62,3.79-1.12,0-2.3-.34-2.3-1.7h.95c0,.79.66,1.03,1.34,1.03,1.17,0,1.55-.65,1.64-1.67.02-.3.02-.61.02-.91-.39.63-1.09,1.01-1.84.98-1.66,0-2.44-1.27-2.44-2.8s.82-2.81,2.43-2.81c.78-.04,1.51.37,1.88,1.05v-.95h.98c-.04.65-.04,1.29-.04,1.93ZM83.11,61.85c-1.22,0-1.64,1.12-1.64,2.17s.44,2.11,1.63,2.11,1.63-1.14,1.63-2.2c0-.98-.49-2.08-1.62-2.08h0Z"/>
  <path class="cls-1" d="M89.19,68.92h-.97l.91-2.1-2.37-5.54h1.1l1.75,4.54,1.74-4.54h.98l-3.15,7.64Z"/>
</svg>