<?xml version="1.0" encoding="UTF-8"?>
<svg id="Layer_1" xmlns="http://www.w3.org/2000/svg" version="1.1" viewBox="0 0 465.49 211.03">
  <!-- Generator: Adobe Illustrator 29.8.1, SVG Export Plug-In . SVG Version: 2.1.1 Build 2)  -->
  <defs>
    <style>
      .st0, .st1 {
        fill: #606060;
      }

      .st1 {
        fill-rule: evenodd;
      }
    </style>
  </defs>
  <g>
    <path class="st0" d="M205.86,123.03h-32.38l-1.95,5.36h24.65c1.85,0,3.33.77,4.42,2.3s1.31,3.18.66,4.94l-4.6,12.67c-.79,2.18-2.1,3.9-3.93,5.15-1.83,1.25-3.91,1.88-6.23,1.88h-40.94l3.9-10.79h32.38l1.95-5.36h-24.65c-1.86,0-3.33-.77-4.42-2.3s-1.31-3.18-.66-4.94l4.6-12.6c.79-2.18,2.1-3.91,3.93-5.19,1.83-1.27,3.91-1.91,6.23-1.91h40.94l-3.9,10.79Z"/>
    <path class="st0" d="M256.68,123.03l-11.77,32.31h-16.15l11.77-32.31h-16.15l3.9-10.79c20.33,0,35.58.02,45.74.07l-3.9,10.79-13.44-.07Z"/>
    <path class="st0" d="M339.19,123.03h-32.38l-1.95,5.57h26.95l-3.55,8.98h-26.95l-2.3,6.96h32.31l-3.9,10.79h-48.53l15.67-43.1h48.53l-3.9,10.79h0Z"/>
    <path class="st0" d="M409.65,123.03h-32.38l-1.95,5.57h26.95l-3.55,8.98h-26.95l-2.3,6.96h32.31l-3.9,10.79h-48.53l15.67-43.1h48.53l-3.9,10.79h0Z"/>
    <path class="st0" d="M451.64,112.3l-11.77,32.31h25.62l-3.9,10.72h-41.78l15.67-43.03h16.16Z"/>
    <path class="st0" d="M189.63,182.3l-2.6,7.19h-21.58l-1.67,4.55h17.96l-2.23,6.22h-17.96l-3.95,10.77h-10.77l10.44-28.73h32.36Z"/>
    <path class="st0" d="M193.81,211.03l10.44-28.73h27.2c1.24,0,2.21.51,2.93,1.53.71,1.02.85,2.12.42,3.3l-3.06,8.4c-.53,1.45-1.4,2.61-2.62,3.46s-2.59,1.28-4.11,1.28h-.79l5.48,10.77h-10.77l-5.48-10.77h-4.97l-3.9,10.77h-10.77ZM212.15,189.49l-1.67,4.55h11.56l1.67-4.55h-11.56Z"/>
    <path class="st0" d="M240.13,211.03l8.73-24c.53-1.45,1.4-2.61,2.62-3.46s2.61-1.28,4.16-1.28h27.29l-10.44,28.73h-10.82l2.64-7.2h-10.77l-2.65,7.2h-10.77.01ZM258.75,189.49l-2.6,7.2h10.77l2.6-7.2h-10.77Z"/>
    <path class="st0" d="M287.11,211.03l10.44-28.73h10.77l4.22,8.22,10.17-8.22h10.77l-10.44,28.73h-10.77c1.48-4.15,3.5-9.7,6.03-16.66-.15.19-.32.36-.51.53s-.39.35-.6.53c-.22.19-.39.32-.51.42l-8.63,7.06-3.2-6.69c-.03-.09-.12-.31-.28-.65s-.28-.66-.37-.95-.14-.59-.14-.9l-6.17,17.31h-10.78Z"/>
    <path class="st0" d="M337.66,211.03l10.44-28.69h10.77l-10.44,28.69h-10.77Z"/>
    <path class="st0" d="M363.05,211.03l10.44-28.73h10.82l5.52,14.39,5.25-14.39h10.77l-10.44,28.73h-10.82l-5.52-14.34-5.25,14.34h-10.77Z"/>
    <path class="st0" d="M450.22,189.49h-21.58l-5.2,14.34h10.77l2.6-7.15h10.77l-3.48,9.61c-.53,1.45-1.4,2.61-2.62,3.46s-2.61,1.28-4.16,1.28h-27.29l8.73-24c.53-1.45,1.4-2.61,2.62-3.46s2.61-1.28,4.16-1.28h27.29l-2.6,7.19h0Z"/>
  </g>
  <path class="st1" d="M278.93,9.78L0,85.75v-9.26L280.85,0l1.76,1.35c28.08,21.54,56.15,43.07,84.23,64.61v11.26l-2.72-2.09c-28.4-21.78-56.79-43.57-85.19-65.35"/>
  <path class="st1" d="M128.48,79.52L0,110.49v11.94l128.48-28.46v-14.44h0ZM128.48,102.59L0,128.89v11.82l128.48-23.53v-14.59ZM128.48,124.93L0,146.63v11.85l128.48-18.06v-15.48h0ZM128.48,148.15L0,164.23v10.88l128.48-11.63v-15.33ZM128.48,171.23L0,181.05v11.15l128.48-5.79v-15.19h0ZM128.48,194.45L0,198.03v11.61h128.48v-15.19ZM128.48,71.18v-15.42L0,90.75v12.95s128.48-32.52,128.48-32.52Z"/>
</svg>